<?xml version="1.0" standalone="no"?>
<!DOCTYPE svg PUBLIC "-//W3C//DTD SVG 20010904//EN"
 "http://www.w3.org/TR/2001/REC-SVG-20010904/DTD/svg10.dtd">
<svg version="1.0" xmlns="http://www.w3.org/2000/svg"
 width="82.541772pt" height="66.000000pt" viewBox="0 0 82.541772 66.000000"
 preserveAspectRatio="xMidYMid meet">
<metadata>
Created by potrace 1.16, written by Peter Selinger 2001-2019
</metadata>
<g transform="translate(0.000000,66.000000) scale(0.016709,-0.016709)"
fill="#000000" stroke="none">
<path d="M2135 3388 c-27 -5 -68 -21 -90 -36 -35 -25 -95 -99 -108 -134 -3 -9
-22 -4 -69 20 -114 56 -152 42 -231 -86 -31 -49 -147 -239 -258 -423 -196
-321 -204 -336 -204 -386 0 -43 5 -57 25 -77 14 -13 183 -112 375 -220 378
-212 388 -216 455 -174 43 26 258 70 267 54 4 -5 16 -114 27 -241 l21 -230
127 -3 126 -3 6 38 c3 21 12 121 21 223 9 102 18 194 20 206 l5 21 112 -20
c78 -13 124 -27 149 -43 71 -48 70 -48 487 188 57 32 105 58 106 58 13 0 235
135 248 151 31 37 33 85 6 137 -53 102 -474 789 -503 820 -46 50 -89 53 -170
11 -35 -18 -66 -31 -68 -28 -2 2 -20 30 -40 61 -107 169 -346 160 -432 -16
-38 -78 -37 -154 5 -236 l30 -60 -41 -25 c-22 -15 -47 -29 -54 -31 -15 -6
-115 44 -115 57 0 4 12 31 27 61 54 106 38 220 -40 295 -71 69 -129 87 -222
71z m102 -93 c21 -9 46 -23 56 -33 26 -23 47 -77 47 -120 0 -39 -35 -121 -55
-128 -9 -4 -251 122 -274 142 -8 7 34 76 64 105 47 47 103 58 162 34z m574 5
c38 -11 74 -45 107 -102 15 -27 18 -39 9 -46 -24 -18 -253 -142 -263 -142 -18
0 -54 89 -54 136 0 71 44 135 106 154 40 11 53 11 95 0z m411 -183 c38 -61 32
-51 133 -217 41 -69 81 -134 88 -145 7 -10 23 -37 36 -60 14 -22 67 -109 118
-194 52 -85 92 -160 89 -167 -4 -10 -100 -66 -496 -289 -167 -94 -188 -105
-203 -105 -20 0 -31 19 -167 285 -62 121 -127 247 -145 280 -165 309 -163 301
-87 343 l42 24 18 -33 c9 -17 27 -43 38 -58 19 -22 26 -24 50 -16 39 14 41 44
8 105 -15 28 -25 52 -23 54 2 1 62 35 134 74 l129 72 34 -55 c39 -63 70 -73
98 -30 16 24 15 28 -12 82 -16 31 -24 58 -19 60 6 2 24 12 40 22 47 31 61 26
97 -32z m-776 -509 c-2 -7 -46 -137 -96 -290 l-93 -276 -45 -12 c-24 -6 -47
-8 -50 -5 -3 2 28 74 68 157 41 84 104 217 142 296 37 78 70 142 72 142 3 0 4
-6 2 -12z"/>
<path d="M1300 1251 c0 -6 5 -13 10 -16 6 -4 10 -63 10 -145 0 -82 -4 -141
-10 -145 -22 -13 -8 -25 30 -25 l40 0 0 80 0 80 45 0 44 0 3 -77 3 -78 42 -5
c35 -4 41 -8 33 -20 -19 -29 -10 -30 30 -2 30 20 43 38 51 70 9 34 16 42 35
42 25 0 39 -29 32 -66 -2 -15 4 -20 30 -22 39 -4 39 -5 8 112 -14 50 -30 110
-36 134 -10 40 -13 42 -46 42 -27 0 -35 -4 -31 -14 3 -7 -5 -63 -18 -122 -33
-151 -36 -159 -63 -132 -15 15 -17 284 -2 293 22 13 8 25 -30 25 l-40 0 0 -65
0 -65 -45 0 -45 0 0 65 0 65 -40 0 c-22 0 -40 -4 -40 -9z"/>
<path d="M1795 1210 c-20 -4 -26 -8 -17 -13 9 -6 12 -52 12 -173 0 -90 3 -164
8 -164 16 1 42 79 42 127 0 50 0 51 36 57 49 10 74 38 74 84 0 21 -6 47 -14
57 -15 20 -92 34 -141 25z"/>
<path d="M2274 1212 c-7 -4 -17 -26 -24 -49 -15 -49 -25 -47 -41 7 -11 37 -15
40 -47 40 -28 0 -32 -3 -23 -13 6 -8 24 -47 41 -87 30 -72 41 -170 20 -170 -5
0 -10 -5 -10 -11 0 -6 14 -9 33 -7 31 3 32 4 29 48 -4 50 44 198 74 232 16 17
16 18 -12 18 -16 0 -34 -4 -40 -8z"/>
<path d="M2492 1213 c-23 -9 -40 -56 -31 -89 7 -23 22 -38 58 -57 56 -31 65
-46 45 -76 -27 -38 -74 -21 -74 26 l0 24 -27 -25 c-26 -24 -26 -25 -9 -51 50
-76 166 -39 166 53 0 43 -20 67 -82 95 -39 17 -47 34 -26 55 22 22 48 14 60
-18 l10 -30 21 26 21 27 -28 23 c-26 23 -72 30 -104 17z"/>
<path d="M2930 1190 c-67 -72 -44 -230 38 -261 88 -34 157 87 122 213 -22 78
-108 104 -160 48z m99 -28 c17 -32 22 -115 8 -152 -15 -44 -59 -55 -78 -19
-19 36 -15 146 6 169 23 25 51 26 64 2z"/>
<path d="M3624 1213 c-16 -3 -25 -16 -34 -48 -14 -52 -25 -50 -41 5 -11 37
-15 40 -47 40 -31 0 -33 -2 -21 -16 24 -29 69 -158 69 -198 0 -23 -7 -47 -17
-58 -15 -17 -14 -18 25 -18 l41 0 -5 48 c-5 37 1 65 25 131 17 46 38 92 47
103 16 17 16 18 -2 17 -10 -1 -29 -4 -40 -6z"/>
<path d="M1968 1198 c8 -8 12 -62 12 -177 l0 -166 25 40 c17 29 24 55 25 91 0
51 1 52 35 58 67 13 96 87 54 140 -19 24 -27 26 -92 26 -55 0 -68 -3 -59 -12z"/>
<path d="M2658 1198 c15 -15 17 -244 2 -253 -21 -13 -9 -26 23 -23 l32 3 3 68
3 67 37 0 37 0 0 -68 0 -67 34 -3 c30 -3 33 -1 25 15 -5 10 -10 68 -12 129 -3
93 0 114 13 128 15 15 13 16 -24 16 -33 0 -40 -3 -39 -17 1 -10 0 -35 0 -55
-2 -36 -4 -38 -37 -38 l-35 0 0 55 0 55 -37 0 c-29 0 -34 -3 -25 -12z"/>
<path d="M3128 1078 c1 -73 3 -153 5 -178 l2 -45 23 38 c15 27 22 54 22 91 0
54 0 54 36 60 50 10 74 38 74 86 0 60 -25 80 -102 80 l-63 0 3 -132z"/>
<path d="M3310 1191 c6 -11 10 -88 10 -178 l0 -158 25 40 c17 29 24 55 25 91
0 51 1 52 35 58 67 13 96 87 54 140 -19 24 -27 26 -90 26 -66 0 -69 -1 -59
-19z"/>
<path d="M1777 793 c-2 -5 -7 -24 -11 -44 -8 -44 -32 -70 -42 -46 -3 9 -14 19
-25 22 -20 7 -27 35 -9 35 6 0 10 -4 10 -10 0 -5 5 -10 10 -10 6 0 10 9 10 21
0 26 -38 23 -54 -4 -9 -15 -7 -22 12 -34 23 -16 30 -43 11 -43 -7 0 -18 8 -25
18 -12 16 -13 16 -14 0 0 -26 26 -35 83 -27 29 4 56 3 60 -1 5 -4 33 -5 63 -3
30 2 54 3 54 1 0 -2 -4 -18 -9 -36 -6 -20 -6 -32 0 -32 5 0 12 14 16 30 3 17
8 30 12 31 88 8 85 10 64 -48 -3 -7 -1 -13 4 -13 6 0 14 15 20 33 7 25 14 31
31 29 11 -2 29 1 39 7 12 6 25 6 36 -1 15 -8 17 -17 12 -51 -10 -60 8 -35 29
39 19 70 19 74 7 74 -5 0 -12 -10 -16 -22 l-8 -23 -4 23 c-6 28 -11 28 -36 -5
l-21 -27 -6 25 c-8 35 -52 39 -68 4 -14 -31 -30 -32 -34 -2 -4 31 -53 37 -61
8 -7 -27 -27 -27 -27 0 0 29 -41 21 -57 -11 l-13 -25 0 29 c0 23 -3 27 -20 23
-11 -3 -20 -4 -20 -3 0 0 4 16 9 33 8 29 -1 55 -12 36z"/>
<path d="M2560 774 c-6 -14 -10 -31 -10 -37 0 -17 -29 -57 -40 -57 -6 0 -9 10
-7 22 3 33 -30 35 -62 4 -28 -27 -41 -26 -41 6 0 21 -20 24 -38 6 -10 -10 -15
-10 -22 2 -7 12 -12 12 -22 2 -6 -6 -19 -12 -28 -12 -9 0 -24 -8 -34 -19 -16
-17 -14 -18 51 -16 38 1 72 -1 77 -4 18 -9 110 -10 142 -2 17 5 37 6 43 2 6
-4 37 -4 68 0 32 3 65 3 73 -1 8 -4 21 -5 28 -3 17 6 15 42 -3 49 -8 4 -15 12
-15 20 0 8 -4 14 -10 14 -5 0 -10 -8 -10 -18 0 -24 -35 -56 -52 -49 -8 4 -7 6
5 6 20 1 23 17 5 24 -8 3 -6 6 5 6 9 1 17 6 17 11 0 7 -13 8 -34 5 -19 -4 -44
-4 -56 0 -17 6 -20 12 -15 36 8 36 -2 38 -15 3z"/>
<path d="M2859 748 c-6 -24 -18 -51 -27 -61 -15 -17 -14 -18 19 -18 18 0 69
-1 111 -2 83 -2 81 0 61 -54 -3 -7 0 -13 6 -13 6 0 14 14 19 31 7 28 12 32 46
33 37 1 37 1 31 -31 -3 -18 -2 -33 2 -33 5 0 13 15 19 33 5 19 15 31 23 29 8
-2 26 1 42 7 42 15 62 -4 49 -48 -9 -33 -7 -51 6 -39 3 3 11 28 18 54 7 27 16
59 20 72 4 13 3 22 -3 22 -5 0 -13 -9 -16 -20 -3 -11 -11 -20 -17 -20 -6 0 -8
9 -5 20 7 28 -7 25 -27 -5 -20 -31 -34 -32 -38 -3 -4 33 -34 34 -63 1 -23 -26
-24 -27 -25 -7 0 40 -51 46 -69 8 -13 -30 -37 -27 -33 4 3 18 -2 22 -22 22
-14 0 -31 -8 -38 -18 -24 -33 -40 -37 -32 -8 5 22 3 26 -16 26 -19 0 -21 4
-15 30 10 47 -13 36 -26 -12z"/>
</g>
</svg>
